<?xml version="1.0" encoding="UTF-8" standalone="no"?>
<!-- Created with Inkscape (http://www.inkscape.org/) -->

<svg
   width="33.072918mm"
   height="25.135418mm"
   viewBox="0 0 33.072918 25.135418"
   version="1.1"
   id="svg1"
   xmlns="http://www.w3.org/2000/svg"
   xmlns:svg="http://www.w3.org/2000/svg">
  <defs
     id="defs1" />
  <g
     id="layer1"
     transform="translate(-10.710974,-30.554724)">
    <path
       id="rect2"
       style="color:#000000;fill:#f2f2f2;stroke-width:1.009;stroke-linecap:round;stroke-linejoin:round;-inkscape-stroke:none;paint-order:fill markers stroke"
       d="m 13.248195,30.554724 c -1.385193,0 -2.537222,1.15486 -2.537221,2.543456 v 20.046939 c 0,1.388596 1.152028,2.545022 2.537221,2.545022 h 27.996913 c 1.385192,0 2.538783,-1.156426 2.538783,-2.545022 V 33.09818 c 0,-1.388596 -1.153591,-2.543456 -2.538783,-2.543456 z m 1.680543,2.41503 h 24.635306 l -9.776527,8.575287 c -0.169019,0.148255 -0.619692,0.466156 -1.045197,0.696422 -0.425507,0.230266 -0.919709,0.341425 -0.828555,0.341425 h -1.332666 c 0.09115,0 -0.405131,-0.111159 -0.830637,-0.341425 -0.425507,-0.230266 -0.874095,-0.548167 -1.043114,-0.696422 z m 26.446043,1.619939 v 18.555426 c 0,0.0922 -0.0377,0.129992 -0.129673,0.129992 H 13.248195 c -0.09198,0 -0.128111,-0.03779 -0.128111,-0.129992 V 34.590736 l 10.00098,8.771581 c 0.386822,0.339301 0.901702,0.689925 1.485775,1.006001 0.584071,0.316075 1.144524,0.629599 1.97426,0.629599 h 1.332666 c 0.829738,0 1.39019,-0.313524 1.974262,-0.629599 0.584071,-0.316076 1.098952,-0.6667 1.485773,-1.006001 z" />
  </g>
</svg>
